<svg width="1434" height="1442" viewBox="0 0 1434 1442" fill="none" xmlns="http://www.w3.org/2000/svg">
<path opacity="0.3" d="M842.675 1432.99L717.006 720.802L962.116 1400.78L842.675 1432.99ZM655.17 1441.45L842.675 1432.99L717.006 720.82L655.17 1441.45ZM591.323 1432.99L716.988 720.802L471.878 1400.8L591.323 1432.99ZM471.878 1400.8L717.006 720.802L305.314 1313.8L471.878 1400.8ZM254.211 1274.37L716.988 720.82L166.781 1186.39L254.211 1274.37ZM166.781 1186.39L717.006 720.802L65.7534 1027.26L166.781 1186.39ZM41.1163 967.396L716.988 720.802L0.705078 783.014L41.1163 967.396ZM0.705078 783.014L716.988 720.82L0.705078 658.608V783.014ZM9.12067 594.37L717.006 720.802L61.292 411.118L9.12067 594.37ZM65.7534 414.359L716.988 720.82L127.59 306.622L65.7534 414.359ZM166.781 255.208L716.988 720.802L254.211 167.247L166.781 255.208ZM254.211 167.247L717.006 720.82L412.4 65.6054L254.211 167.247ZM471.878 40.8185L716.988 720.802L591.323 8.62843L471.878 40.8185ZM591.323 8.62843L716.988 720.802L778.823 0.161621L591.323 8.62843ZM842.675 8.60796L717.006 720.802L962.097 40.8185L842.675 8.60796ZM962.097 40.8185L716.988 720.802L1128.68 127.818L962.097 40.8185ZM1179.77 167.247L716.988 720.802L1267.19 255.208L1179.77 167.247ZM1267.19 255.208L716.988 720.802L1368.22 414.338L1267.19 255.208ZM1392.88 474.199L716.988 720.802L1424.88 594.37L1392.88 474.199ZM1424.88 594.37L717.006 720.802L1433.29 782.99L1424.88 594.37ZM1424.88 847.248L716.988 720.82L1392.86 967.42L1424.88 847.248ZM1392.86 967.42L716.988 720.802L1306.41 1135L1392.86 967.42ZM1267.21 1186.39L716.988 720.802L1179.77 1274.35L1267.21 1186.39ZM1179.77 1274.35L716.988 720.802L1021.6 1375.99L1179.77 1274.35Z" fill="url(#paint0_radial_166_17)" fill-opacity="0.3"/>
<defs>
<radialGradient id="paint0_radial_166_17" cx="0" cy="0" r="1" gradientUnits="userSpaceOnUse" gradientTransform="translate(718.3 719.494) rotate(2.88448) scale(715.902 720.257)">
<stop stop-color="#2FB0F4" stop-opacity="0.93"/>
<stop offset="0.46875" stop-color="#5DC7FF"/>
<stop offset="0.734375" stop-color="#4E85A2" stop-opacity="0"/>
<stop offset="1" stop-color="#0078B8" stop-opacity="0"/>
</radialGradient>
</defs>
</svg>
