<svg width="30" height="35" viewBox="0 0 30 35" fill="none" xmlns="http://www.w3.org/2000/svg">
<path d="M3.40643 17.4739L3.42436 24.0498L9.0119 27.3378V31.1877L0.154337 25.9927V15.551L3.40643 17.4739ZM3.40643 10.898V14.73L0.152344 12.805V8.97305L3.40643 7.0481L6.67645 8.97305L3.40643 10.898ZM11.3454 8.97305L14.5994 7.0481L17.8695 8.97305L14.5994 10.898L11.3454 8.97305Z" fill="#0D0D0D"/>
<path d="M5.75781 22.6868V18.8369L9.01189 20.7619V24.5938L5.75781 22.6868ZM11.3453 28.7167L14.5994 30.6417L17.8695 28.7167V32.5487L14.5994 34.4737L11.3453 32.5487V28.7167ZM22.5364 8.97305L25.7904 7.0481L29.0605 8.97305V12.805L25.7904 14.73V10.898L22.5364 8.97305ZM25.7904 24.0498L25.8084 17.4739L29.0625 15.549V25.9907L20.2049 31.1857V27.3358L25.7904 24.0498Z" fill="#0D0D0D"/>
<path d="M23.457 22.6868L20.2029 24.5938V20.7618L23.457 18.8369V22.6868Z" fill="#0D0D0D"/>
<path d="M23.457 12.2605L23.4749 16.1104L17.8715 19.3983V25.9902L14.6174 27.8972L11.3633 25.9902V19.3983L5.7598 16.1104V12.2605L9.02784 10.3355L14.5974 13.6394L20.2009 10.3355L23.4709 12.2605H23.457ZM5.75781 5.68654L14.5994 0.473633L23.457 5.68654L20.2029 7.61149L14.5994 4.30759L9.0119 7.61149L5.75781 5.68654Z" fill="#0D0D0D"/>
</svg>
