<svg width="39" height="32" viewBox="0 0 39 32" fill="none" xmlns="http://www.w3.org/2000/svg">
<path fill-rule="evenodd" clip-rule="evenodd" d="M29.8213 31.6467C30.3365 32.0115 31.0005 32.1027 31.5925 31.8787C32.1845 31.6531 32.6197 31.1475 32.7509 30.5347C34.1413 24.0003 37.5141 7.46105 38.7797 1.51704C38.8757 1.06904 38.7157 0.603437 38.3637 0.304237C38.0117 0.00503641 37.5237 -0.0813627 37.0885 0.0802375C30.3797 2.56344 9.71885 10.3154 1.27409 13.4403C0.738088 13.6387 0.389287 14.1539 0.406887 14.7187C0.426087 15.2851 0.806888 15.7763 1.35569 15.9411C5.14285 17.0739 10.1141 18.6499 10.1141 18.6499C10.1141 18.6499 12.4373 25.6659 13.6485 29.2339C13.8005 29.6819 14.1509 30.0339 14.6133 30.1555C15.0741 30.2755 15.5669 30.1491 15.9109 29.8243C17.8565 27.9875 20.8645 25.1475 20.8645 25.1475C20.8645 25.1475 26.5797 29.3379 29.8213 31.6467ZM12.2053 17.7635L14.8917 26.6243L15.4885 21.0131C15.4885 21.0131 25.8677 11.6515 31.7845 6.31544C31.9573 6.15864 31.9813 5.89624 31.8373 5.71224C31.6949 5.52824 31.4325 5.48504 31.2357 5.60984C24.3781 9.98905 12.2053 17.7635 12.2053 17.7635Z" fill="#060205"/>
</svg>
