<svg width="45" height="32" viewBox="0 0 45 32" fill="none" xmlns="http://www.w3.org/2000/svg">
<path d="M44.2319 3.78835C42.6407 4.4315 40.9306 4.86464 39.1357 5.05988C40.9684 4.0607 42.3758 2.47744 43.0372 0.590647C41.3234 1.516 39.424 2.18868 37.4021 2.55127C35.7856 0.981132 33.4772 0 30.9255 0C25.1967 0 20.9871 4.86628 22.2809 9.91796C14.9087 9.58162 8.37078 6.36587 3.99356 1.47826C1.66889 5.10911 2.78797 9.8589 6.73811 12.2641C5.28564 12.2215 3.91607 11.8589 2.7213 11.2535C2.62398 14.9959 5.57037 18.4971 9.83766 19.2765C8.58883 19.5849 7.22106 19.6571 5.82986 19.4143C6.95796 22.6235 10.2341 24.9582 14.1194 25.0238C10.3891 27.6866 5.6893 28.8761 0.9823 28.3708C4.90901 30.6628 9.57456 32 14.5843 32C31.0588 32 40.3665 19.3322 39.8043 7.97047C41.5379 6.83019 43.0426 5.40771 44.2319 3.78835Z" fill="#060205"/>
</svg>
