<svg width="49" height="49" viewBox="0 0 49 49" fill="none" xmlns="http://www.w3.org/2000/svg">
<rect x="0.607422" y="0.618164" width="48" height="48" rx="24" fill="#171717"/>
<path fill-rule="evenodd" clip-rule="evenodd" d="M30.9914 34.3979C31.3134 34.6259 31.7284 34.6829 32.0984 34.5429C32.4684 34.4019 32.7404 34.0859 32.8224 33.7029C33.6913 29.619 35.7993 19.2822 36.5903 15.5673C36.6503 15.2873 36.5503 14.9963 36.3303 14.8093C36.1103 14.6223 35.8053 14.5683 35.5333 14.6693C31.3404 16.2213 18.4277 21.0662 13.1498 23.0191C12.8148 23.1431 12.5968 23.4651 12.6078 23.8181C12.6198 24.1721 12.8578 24.4791 13.2008 24.5821C15.5677 25.2901 18.6747 26.275 18.6747 26.275C18.6747 26.275 20.1266 30.6599 20.8836 32.8899C20.9786 33.1699 21.1976 33.3899 21.4866 33.4659C21.7746 33.5409 22.0826 33.4619 22.2976 33.2589C23.5136 32.1109 25.3935 30.336 25.3935 30.336C25.3935 30.336 28.9654 32.9549 30.9914 34.3979ZM19.9816 25.7211L21.6606 31.2589L22.0336 27.752C22.0336 27.752 28.5204 21.9011 32.2184 18.5662C32.3264 18.4682 32.3414 18.3042 32.2514 18.1892C32.1624 18.0742 31.9984 18.0472 31.8754 18.1252C27.5895 20.8622 19.9816 25.7211 19.9816 25.7211Z" fill="white"/>
</svg>
