<svg width="49" height="49" viewBox="0 0 49 49" fill="none" xmlns="http://www.w3.org/2000/svg">
<rect x="0.607422" y="0.618164" width="48" height="48" rx="24" fill="#171717"/>
<path d="M36.6074 17.1752C35.7244 17.5672 34.7754 17.8312 33.7794 17.9502C34.7964 17.3412 35.5774 16.3762 35.9444 15.2262C34.9934 15.7902 33.9394 16.2002 32.8174 16.4212C31.9204 15.4642 30.6394 14.8662 29.2234 14.8662C26.0444 14.8662 23.7084 17.8322 24.4264 20.9112C20.3354 20.7062 16.7074 18.7462 14.2784 15.7672C12.9884 17.9802 13.6094 20.8752 15.8014 22.3412C14.9954 22.3152 14.2354 22.0942 13.5724 21.7252C13.5184 24.0062 15.1534 26.1402 17.5214 26.6152C16.8284 26.8032 16.0694 26.8472 15.2974 26.6992C15.9234 28.6552 17.7414 30.0782 19.8974 30.1182C17.8274 31.7412 15.2194 32.4662 12.6074 32.1582C14.7864 33.5552 17.3754 34.3702 20.1554 34.3702C29.2974 34.3702 34.4624 26.6492 34.1504 19.7242C35.1124 19.0292 35.9474 18.1622 36.6074 17.1752Z" fill="white"/>
</svg>
