<svg width="49" height="49" viewBox="0 0 49 49" fill="none" xmlns="http://www.w3.org/2000/svg">
<rect x="0.607422" y="0.618164" width="48" height="48" rx="24" fill="#171717"/>
<path fill-rule="evenodd" clip-rule="evenodd" d="M21.5222 20.981H25.979V23.201C26.621 21.9242 28.2674 20.777 30.7406 20.777C35.4818 20.777 36.6074 23.3186 36.6074 27.9818V36.6182H31.8074V29.0438C31.8074 26.3882 31.1654 24.8906 29.531 24.8906C27.2642 24.8906 26.3222 26.5046 26.3222 29.0426V36.6182H21.5222V20.981ZM13.2914 36.4142H18.0914V20.777H13.2914V36.4142ZM18.779 15.6782C18.7792 16.0805 18.6994 16.4788 18.5443 16.8501C18.3892 17.2213 18.1618 17.558 17.8754 17.8406C17.2951 18.4173 16.5096 18.7401 15.6914 18.7382C14.8747 18.7376 14.091 18.4156 13.5098 17.8418C13.2245 17.5582 12.9979 17.2212 12.843 16.8499C12.6882 16.4786 12.6081 16.0804 12.6074 15.6782C12.6074 14.8658 12.9314 14.0882 13.511 13.5146C14.0917 12.94 14.8757 12.6178 15.6926 12.6182C16.511 12.6182 17.2958 12.941 17.8754 13.5146C18.4538 14.0882 18.779 14.8658 18.779 15.6782Z" fill="white"/>
</svg>
