<svg width="49" height="49" viewBox="0 0 49 49" fill="none" xmlns="http://www.w3.org/2000/svg">
<rect x="0.607422" y="0.618164" width="48" height="48" rx="24" fill="#171717"/>
<path d="M16.7008 24.6182L16.7135 29.26L20.6576 31.5809V34.2985L14.4052 30.6315V23.2608L16.7008 24.6182ZM16.7008 19.9764V22.6813L14.4038 21.3225V18.6176L16.7008 17.2588L19.0091 18.6176L16.7008 19.9764ZM22.3048 18.6176L24.6018 17.2588L26.91 18.6176L24.6018 19.9764L22.3048 18.6176Z" fill="white"/>
<path d="M18.3606 28.2979V25.5803L20.6576 26.9391V29.644L18.3606 28.2979ZM22.3047 32.5543L24.6017 33.9131L26.91 32.5543V35.2592L24.6017 36.618L22.3047 35.2592V32.5543ZM30.2043 18.6176L32.5013 17.2588L34.8095 18.6176V21.3225L32.5013 22.6813V19.9764L30.2043 18.6176ZM32.5013 29.26L32.5139 24.6182L34.8109 23.2594V30.6301L28.5585 34.2971V31.5795L32.5013 29.26Z" fill="white"/>
<path d="M30.8541 28.2977L28.5571 29.6438V26.9389L30.8541 25.5801V28.2977Z" fill="white"/>
<path d="M30.8541 20.9383L30.8668 23.6559L26.9114 25.9768V30.6298L24.6144 31.976L22.3174 30.6298V25.9768L18.362 23.6559V20.9383L20.6688 19.5795L24.6003 21.9117L28.5557 19.5795L30.864 20.9383H30.8541ZM18.3606 16.2979L24.6017 12.6182L30.8541 16.2979L28.5571 17.6567L24.6017 15.3245L20.6576 17.6567L18.3606 16.2979Z" fill="white"/>
</svg>
